[img]http://www.shotpix.com/images/24940000574214150568.png[/img]   [url]http://www.imdb.com/title/tt0047990[/url]


[img]http://www.shotpix.com/images/77085747293401738346.gif[/img]

[code]Movie Name :- Devdas (1955)

Run Time :- 159 min  

Genres :-  Musical | Romance
 
Ratings: 7.4/10 from 641 users  

Director :- Bimal Roy

Writers :- Rajinder Singh Bedi, Saratchandra Chatterjee (novel)

Stars :- Dilip Kumar, Vyjayanthimala, Motilal Etc.[/code]

[img]http://www.shotpix.com/images/59022378797514383087.gif[/img]


[b]Childhood sweethearts, Devdas and Paro grow up in a small village with a love-hate relationship which changes to love when they mature. Devdas' dad does not approve of his marriage or even any friendship with Paro, and sends him away to Calcutta where he is introduced to a dancer, Chandramukhi, who adores him and falls hopelessly in love with him. Devdas in not aware of Chandramukhi's affection[/b]


[img]http://www.shotpix.com/images/44663617507488027387.gif   [/img]


[code]Complete name                            : Devdaas_1955_Bollywood_OLD_Hindi Movie(320X240)_{somnath2003}
Format                                   : Flash Video
File size                                : 333 MiB
Duration                                 : 2h 42mn
Overall bit rate                         : 288 Kbps
httphostheader                           :

[img]http://www.shotpix.com/images/34235854661596452485.gif[/img]


[code]Format                                   : MP4
Codec ID                                 : 2
Duration                                 : 2h 42mn
Bit rate                                 : 216 Kbps
Width                                    : 320 pixels
Height                                   : 240 pixels
Display aspect ratio                     : 4:3
Frame rate mode                          : Constant
Frame rate                               : 25.000 fps
Bit depth                                : 8 bits
Bits/(Pixel*Frame)                       : 0.112
Stream size                              : 250 MiB (75%)[/code]

[img]http://www.shotpix.com/images/54760780871226007874.gif[/img]


[code]Format                                   : MPEG Audio
Format version                           : Version 2
Format profile                           : Layer 3
Mode                                     : Joint stereo
Mode extension                           : MS Stereo
Codec ID                                 : 2
Codec ID/Hint                            : MP3
Duration                                 : 2h 42mn
Bit rate mode                            : Constant
Bit rate                                 : 64.0 Kbps
Channel(s)                               : 2 channels
Sampling rate                            : 22.05 KHz
Compression mode                         : Lossy
Stream size                              : 74.2 MiB (22%)
Writing library                          : LAME3.98.2[/code]

[img]http://www.shotpix.com/images/50894759808379845433.gif[/img]


[img]http://img856.imageshack.us/img856/9229/devdaas1955bollywoodold.jpg[/img]


[img]http://www.shotpix.com/images/58829411693773444709.gif[/img]


[img]http://www.shotpix.com/images/37530658244654420663.jpg[/img]